<?xml version="1.0" standalone="no"?>
<!DOCTYPE svg PUBLIC "-//W3C//DTD SVG 20010904//EN"
 "http://www.w3.org/TR/2001/REC-SVG-20010904/DTD/svg10.dtd">
<svg version="1.0" xmlns="http://www.w3.org/2000/svg"
 width="256.000000pt" height="256.000000pt" viewBox="0 0 256.000000 256.000000"
 preserveAspectRatio="xMidYMid meet">

<g transform="translate(0.000000,256.000000) scale(0.100000,-0.100000)"
fill="#000000" stroke="none">
<path d="M343 2544 c-67 -33 -64 15 -61 -996 l3 -913 32 -67 c57 -120 157
-194 362 -269 342 -125 415 -160 518 -250 72 -62 95 -63 159 -6 103 91 169
125 435 223 110 40 228 89 263 108 89 50 151 114 189 194 l32 67 0 927 0 928
-33 32 -32 33 -918 2 c-818 2 -920 1 -949 -13z m1852 -989 l0 -920 -30 -54
c-55 -100 -130 -146 -385 -239 -278 -101 -361 -141 -452 -222 l-48 -42 -47 42
c-50 44 -151 106 -218 135 -22 9 -114 44 -205 77 -286 104 -359 148 -415 249
l-30 54 -3 910 c-1 500 0 915 2 922 4 11 184 13 918 11 l913 -3 0 -920z"/>
<path d="M654 2390 c-86 -27 -180 -122 -204 -208 -15 -56 -14 -1434 2 -1450
18 -18 46 -14 58 7 6 13 10 215 10 585 l0 566 40 -26 40 -27 0 -486 c0 -366 3
-490 12 -499 18 -18 46 -14 58 7 6 13 10 184 10 486 0 422 2 467 16 461 9 -3
27 -6 40 -6 l24 0 0 -408 c0 -414 2 -432 36 -432 7 0 20 7 28 16 14 13 16 66
16 420 l0 404 40 0 40 0 0 -348 c0 -352 2 -372 36 -372 7 0 20 7 28 16 14 13
16 60 16 360 l0 344 40 0 40 0 0 -356 0 -355 -80 -84 c-81 -84 -91 -106 -69
-147 10 -18 4 -28 -47 -79 l-58 -59 -94 0 c-99 0 -132 -10 -132 -38 0 -31 22
-42 84 -42 l60 0 -52 -53 c-53 -54 -61 -74 -40 -95 21 -21 41 -13 95 40 l53
52 0 -60 c0 -62 11 -84 42 -84 28 0 38 33 38 132 l0 94 58 57 c57 56 58 57 90
45 28 -11 37 -10 63 4 l29 17 0 -112 c0 -150 -17 -178 -122 -201 -26 -6 -45
-37 -34 -55 8 -13 302 -181 317 -181 13 0 271 146 301 170 27 22 16 58 -20 66
-105 23 -122 51 -122 201 l0 112 29 -17 c26 -14 35 -15 63 -4 32 12 33 11 90
-45 l58 -57 0 -94 c0 -99 10 -132 38 -132 31 0 42 22 42 84 l0 60 53 -52 c54
-53 74 -61 95 -40 21 21 13 41 -40 95 l-52 53 60 0 c62 0 84 11 84 42 0 28
-33 38 -132 38 l-94 0 -58 59 c-51 51 -57 61 -47 79 22 41 12 63 -69 147 l-80
84 0 265 c0 255 -1 266 -20 278 -14 9 -20 24 -20 48 0 23 7 42 20 53 11 9 20
28 20 42 0 23 4 25 40 25 l40 0 0 -344 c0 -300 2 -347 16 -360 8 -9 21 -16 28
-16 34 0 36 20 36 372 l0 348 40 0 40 0 0 -401 c0 -257 4 -407 10 -420 12 -21
40 -25 58 -7 9 9 12 116 12 420 l0 408 24 0 c13 0 31 3 40 6 14 6 16 -39 16
-461 0 -302 4 -473 10 -486 12 -21 40 -25 58 -7 9 9 12 133 12 499 l0 486 40
27 40 26 0 -566 c0 -370 4 -572 10 -585 12 -21 40 -25 58 -7 9 9 12 181 12
715 0 679 -1 704 -20 756 -26 70 -75 125 -141 162 -47 26 -64 30 -134 30 -68
0 -85 -3 -114 -24 -35 -25 -70 -90 -71 -130 0 -42 39 -109 78 -133 101 -62
242 15 242 133 l0 32 25 -23 c38 -36 58 -100 53 -170 -6 -80 -43 -135 -117
-172 -54 -28 -57 -28 -247 -28 l-193 0 -3 225 -3 225 -33 32 c-30 31 -38 33
-111 36 -110 5 -167 -15 -224 -78 -28 -31 -49 -66 -56 -94 -23 -93 -11 -106
105 -106 85 0 85 0 73 -22 -6 -13 -36 -48 -66 -79 -30 -31 -60 -73 -68 -95
l-13 -39 -194 -3 -194 -2 -54 27 c-75 38 -112 93 -118 173 -5 70 15 134 53
170 l25 23 0 -34 c0 -19 10 -52 23 -73 62 -111 221 -106 276 8 26 52 26 79 2
132 -28 62 -72 88 -151 91 -36 1 -79 -2 -96 -7z m586 -135 l0 -55 -55 0 c-30
0 -55 2 -55 5 0 32 72 105 103 105 4 0 7 -25 7 -55z"/>
</g>
</svg>
